<svg preserveAspectRatio="none" width="100%" height="100%" overflow="visible" style="display: block;" viewBox="0 0 121 25" fill="none" xmlns="http://www.w3.org/2000/svg">
<g id="Frame" clip-path="url(#clip0_0_4)">
<path id="Vector" fill-rule="evenodd" clip-rule="evenodd" d="M57.3563 12.8342C57.3563 8.75557 55.3807 5.53725 51.6048 5.53725C47.8128 5.53725 45.5186 8.75557 45.5186 12.8024C45.5186 17.598 48.227 20.0197 52.1146 20.0197C54.0105 20.0197 55.4444 19.5895 56.5278 18.9841V15.7977C55.4444 16.3393 54.2017 16.6739 52.6244 16.6739C51.0789 16.6739 49.7088 16.1322 49.5335 14.2523H57.3245C57.3245 14.045 57.3563 13.2166 57.3563 12.8342ZM49.4858 11.3207C49.4858 9.52032 50.5851 8.77151 51.5889 8.77151C52.5607 8.77151 53.5963 9.52032 53.5963 11.3207H49.4858Z" fill="var(--fill-0, #0A2540)"/>
<path id="Vector_2" fill-rule="evenodd" clip-rule="evenodd" d="M39.3691 5.53723C37.8078 5.53723 36.804 6.27011 36.2464 6.77995L36.0392 5.79214H32.5342V24.3691L36.5172 23.5247L36.5332 19.0159C37.1068 19.4302 37.9511 20.0197 39.3532 20.0197C42.2051 20.0197 44.802 17.7254 44.802 12.6749C44.7861 8.05453 42.1572 5.53723 39.3691 5.53723ZM38.4131 16.5145C37.4731 16.5145 36.9156 16.18 36.5332 15.7657L36.5172 9.85488C36.9315 9.39283 37.5051 9.07419 38.4131 9.07419C39.863 9.07419 40.8668 10.6993 40.8668 12.7864C40.8668 14.9214 39.879 16.5145 38.4131 16.5145Z" fill="var(--fill-0, #0A2540)"/>
<path id="Vector_3" fill-rule="evenodd" clip-rule="evenodd" d="M27.0527 4.59753L31.0518 3.73718V0.50293L27.0527 1.34734V4.59753Z" fill="var(--fill-0, #0A2540)"/>
<path id="Vector_4" d="M31.0518 5.80859H27.0527V19.7493H31.0518V5.80859Z" fill="var(--fill-0, #0A2540)"/>
<path id="Vector_5" fill-rule="evenodd" clip-rule="evenodd" d="M22.7676 6.9871L22.5127 5.80812H19.0713V19.7489H23.0544V10.301C23.9943 9.07423 25.5876 9.29729 26.0815 9.47254V5.80812C25.5717 5.61693 23.7075 5.26643 22.7676 6.9871Z" fill="var(--fill-0, #0A2540)"/>
<path id="Vector_6" fill-rule="evenodd" clip-rule="evenodd" d="M14.8011 2.35079L10.9136 3.17928L10.8977 15.941C10.8977 18.299 12.6661 20.0356 15.0241 20.0356C16.3306 20.0356 17.2866 19.7967 17.8123 19.5099V16.2756C17.3025 16.4827 14.7851 17.2157 14.7851 14.8576V9.20168H17.8123V5.8081H14.7851L14.8011 2.35079Z" fill="var(--fill-0, #0A2540)"/>
<path id="Vector_7" fill-rule="evenodd" clip-rule="evenodd" d="M4.03088 9.8549C4.03088 9.23354 4.5407 8.99455 5.38511 8.99455C6.59597 8.99455 8.12547 9.36099 9.33633 10.0142V6.27013C8.01394 5.74436 6.7075 5.53725 5.38511 5.53725C2.15086 5.53725 -3.39746e-06 7.22607 -3.39746e-06 10.0461C-3.39746e-06 14.4434 6.05427 13.7423 6.05427 15.6383C6.05427 16.3712 5.41699 16.6102 4.52477 16.6102C3.20239 16.6102 1.51356 16.0685 0.175252 15.3356V19.1275C1.65695 19.7647 3.15459 20.0356 4.52477 20.0356C7.83869 20.0356 10.117 18.3946 10.117 15.5427C10.1011 10.7949 4.03088 11.6393 4.03088 9.8549Z" fill="var(--fill-0, #0A2540)"/>
<path id="Vector_8" d="M64.5195 19.7501H69.4637C73.9876 19.7501 76.7499 16.9478 76.7499 12.564C76.7499 8.18031 73.9876 5.37793 69.4637 5.37793H64.5195V19.7501ZM67.402 17.228V7.90007H69.4437C72.2461 7.90007 73.8474 9.72161 73.8474 12.564C73.8474 15.3864 72.2461 17.228 69.4637 17.228H67.402Z" fill="var(--fill-0, #556CD6)"/>
<path id="Vector_9" d="M79.1719 12.5636C79.1719 16.9073 82.0143 19.9699 85.9776 19.9699C89.921 19.9699 92.7634 16.9073 92.7634 12.5636C92.7634 8.21994 89.921 5.15735 85.9776 5.15735C82.0143 5.15735 79.1719 8.21994 79.1719 12.5636ZM89.8009 12.5636C89.8009 15.5061 88.2195 17.3877 85.9776 17.3877C83.7157 17.3877 82.1344 15.5061 82.1344 12.5636C82.1344 9.62113 83.7157 7.73954 85.9776 7.73954C88.2195 7.73954 89.8009 9.62113 89.8009 12.5636Z" fill="var(--fill-0, #556CD6)"/>
<path id="Vector_10" d="M98.0163 12.5636C98.0163 9.64115 99.5577 7.73954 101.76 7.73954C103.321 7.73954 104.462 8.72037 104.862 10.3217L107.624 9.40095C106.784 6.79874 104.742 5.15735 101.76 5.15735C97.8763 5.15735 95.0539 8.21995 95.0539 12.5636C95.0539 16.9073 97.8763 19.9699 101.76 19.9699C104.742 19.9699 106.784 18.3285 107.624 15.7263L104.862 14.8055C104.462 16.4069 103.321 17.3877 101.76 17.3877C99.5577 17.3877 98.0163 15.4861 98.0163 12.5636Z" fill="var(--fill-0, #556CD6)"/>
<path id="Vector_11" d="M109.203 17.1275C110.364 18.869 112.886 19.9699 115.308 19.9699C118.371 19.9699 120.933 18.2284 120.933 15.326C120.933 12.1833 118.131 11.6028 115.849 11.1024C113.967 10.682 112.926 10.4618 112.926 9.34089C112.926 8.30001 113.887 7.61944 115.288 7.61944C116.89 7.61944 118.011 8.42011 118.851 9.60112L120.793 7.6995C119.792 6.25828 117.85 5.15735 115.368 5.15735C112.386 5.15735 110.024 6.87881 110.024 9.62113C110.024 12.4635 112.346 13.1441 114.488 13.6446C116.649 14.125 118.011 14.3051 118.011 15.6262C118.011 16.8473 116.91 17.5078 115.408 17.5078C113.827 17.5078 112.286 16.6671 111.225 15.1658L109.203 17.1275Z" fill="var(--fill-0, #556CD6)"/>
</g>
<defs>
<clipPath id="clip0_0_4">
<rect width="121" height="25" fill="white"/>
</clipPath>
</defs>
</svg>
